<?xml version="1.0" standalone="no"?>
<!DOCTYPE svg PUBLIC "-//W3C//DTD SVG 20010904//EN"
 "http://www.w3.org/TR/2001/REC-SVG-20010904/DTD/svg10.dtd">
<svg version="1.0" xmlns="http://www.w3.org/2000/svg"
 width="400.000000pt" height="400.000000pt" viewBox="0 0 400.000000 400.000000"
 preserveAspectRatio="xMidYMid meet">

<g transform="translate(0.000000,400.000000) scale(0.100000,-0.100000)"
fill="#000000" stroke="none">
<path d="M1884 3419 c-377 -44 -699 -342 -781 -724 -20 -91 -19 -279 1 -372
47 -218 173 -415 347 -545 38 -28 68 -52 66 -54 -1 -2 -50 -10 -107 -19 -128
-20 -270 -55 -370 -91 -406 -145 -628 -447 -647 -874 -5 -119 -4 -126 16 -144
27 -25 77 -25 101 0 16 16 22 43 30 146 12 148 44 271 98 373 51 96 181 225
286 284 138 78 349 140 596 173 131 18 829 18 960 0 247 -33 458 -95 596 -173
105 -59 235 -188 286 -284 54 -102 86 -225 98 -373 8 -103 14 -130 30 -146 24
-25 74 -25 101 0 20 18 21 25 16 144 -19 427 -241 729 -647 874 -100 36 -242
71 -370 91 -57 9 -106 17 -107 19 -2 2 28 26 66 54 174 130 300 327 347 545
20 93 21 281 1 372 -59 274 -242 511 -492 637 -77 40 -207 77 -303 88 -97 11
-117 11 -218 -1z m228 -150 c517 -80 807 -638 573 -1102 -65 -128 -150 -222
-273 -301 -128 -82 -257 -120 -412 -120 -155 0 -284 38 -412 120 -84 54 -138
103 -194 175 -124 161 -181 372 -154 569 58 425 454 724 872 659z"/>
</g>
</svg>
