<?xml version="1.0" standalone="no"?>
<!DOCTYPE svg PUBLIC "-//W3C//DTD SVG 20010904//EN"
 "http://www.w3.org/TR/2001/REC-SVG-20010904/DTD/svg10.dtd">
<svg version="1.0" xmlns="http://www.w3.org/2000/svg"
 width="512.000000pt" height="512.000000pt" viewBox="0 0 512.000000 512.000000"
 preserveAspectRatio="xMidYMid meet">

<g transform="translate(0.000000,512.000000) scale(0.100000,-0.100000)"
fill="#000000" stroke="none">
<path d="M2275 4835 c-985 -129 -1770 -861 -1964 -1830 -33 -167 -44 -312 -38
-519 6 -199 21 -313 63 -481 218 -868 923 -1532 1804 -1699 219 -41 572 -47
780 -11 290 48 572 151 810 295 821 495 1248 1419 1089 2360 -6 36 -25 119
-41 185 -233 915 -1028 1602 -1970 1704 -129 14 -409 12 -533 -4z m515 -315
c368 -46 725 -197 1010 -427 89 -72 257 -243 321 -328 122 -159 237 -371 299
-550 220 -634 109 -1326 -299 -1860 -64 -85 -232 -256 -321 -328 -531 -429
-1249 -553 -1895 -327 -198 69 -418 193 -585 327 -89 72 -257 243 -321 328
-216 282 -355 623 -399 975 -13 109 -13 351 0 460 46 368 197 725 427 1010 72
89 243 257 328 321 277 212 621 354 965 398 95 12 373 13 470 1z"/>
<path d="M2460 3784 c-291 -27 -561 -154 -767 -360 -107 -106 -143 -163 -143
-224 0 -76 58 -144 133 -157 63 -10 118 19 179 94 105 130 277 243 443 292
211 62 433 45 632 -49 117 -55 192 -111 304 -228 77 -81 103 -102 132 -107 60
-11 107 3 148 44 66 66 65 146 -3 233 -180 230 -474 402 -762 448 -75 12 -236
19 -296 14z"/>
<path d="M1870 2501 c-175 -53 -260 -283 -194 -521 65 -234 310 -295 437 -108
114 168 92 450 -44 572 -62 56 -134 76 -199 57z"/>
<path d="M3150 2501 c-175 -53 -260 -283 -194 -521 65 -234 310 -295 437 -108
114 168 92 450 -44 572 -62 56 -134 76 -199 57z"/>
</g>
</svg>
